<svg id="icons" enable-background="new 0 0 64 64" height="512" viewBox="0 0 64 64" width="512" xmlns="http://www.w3.org/2000/svg"><g><g><path d="m28.998 37c-.256 0-.512-.098-.707-.293l-4.143-4.143c-1.53-1.53-1.53-4.021-.001-5.554 1.271-1.271 3.366-1.49 4.852-.563 1.487-.927 3.582-.708 4.85.558 1.515 1.521 1.527 3.983.043 5.517-.014.016-.027.03-.042.045l-4.145 4.141c-.195.194-.451.292-.707.292zm-2.071-9.143c-.515 0-.999.2-1.363.565-.752.753-.752 1.977-.001 2.728l3.436 3.436 3.385-3.381c.025-.03.053-.059.082-.085.72-.755.709-1.958-.031-2.702-.725-.723-1.997-.724-2.726.005-.188.188-.442.294-.707.294h-.002c-.265 0-.519-.105-.706-.292-.367-.366-.853-.568-1.367-.568z"/></g><g><path d="m13 52.232c-.256 0-.512-.098-.707-.293l-7.457-7.455c-2.443-2.443-2.443-6.421 0-8.867 1.186-1.187 2.761-1.84 4.437-1.84 1.36 0 2.655.431 3.728 1.229 1.075-.798 2.371-1.229 3.732-1.229 1.674 0 3.248.651 4.433 1.834 2.428 2.438 2.44 6.388.04 8.834-.013.015-.025.028-.039.042l-7.459 7.453c-.196.195-.452.292-.708.292zm-3.728-16.455c-1.142 0-2.215.445-3.022 1.254-1.664 1.666-1.664 4.375 0 6.039l6.75 6.748 6.682-6.677c.037-.045.078-.087.122-.125 1.609-1.669 1.592-4.342-.053-5.992-.806-.804-1.878-1.248-3.019-1.248-1.142 0-2.216.445-3.022 1.254-.188.188-.442.294-.708.294-.266 0-.52-.105-.707-.293-.809-.808-1.882-1.254-3.023-1.254z"/></g><g><path d="m44.03 60.998c-.553 0-1.005-.447-1.005-1s.442-1 .994-1h.011c.552 0 1 .447 1 1s-.448 1-1 1z"/></g><g><path d="m47 21.498c-.553 0-1-.447-1-1 0-.827-.673-1.5-1.5-1.5s-1.5.673-1.5 1.5c0 .553-.447 1-1 1s-1-.447-1-1c0-1.93 1.57-3.5 3.5-3.5s3.5 1.57 3.5 3.5c0 .553-.447 1-1 1z"/></g><g><path d="m51.998 33.496c-.553 0-1-.447-1-1 0-.826-.673-1.498-1.5-1.498-.826 0-1.498.672-1.498 1.498 0 .553-.447 1-1 1s-1-.447-1-1c0-1.929 1.569-3.498 3.498-3.498 1.93 0 3.5 1.569 3.5 3.498 0 .553-.447 1-1 1z"/></g><g><path d="m56.998 34.496c-.553 0-1-.447-1-1 0-.826-.672-1.498-1.498-1.498-.827 0-1.5.672-1.5 1.498 0 .553-.447 1-1 1s-1-.447-1-1c0-1.929 1.57-3.498 3.5-3.498 1.929 0 3.498 1.569 3.498 3.498 0 .553-.447 1-1 1z"/></g><g><path d="m61.998 35.496c-.553 0-1-.447-1-1 0-.826-.673-1.498-1.5-1.498-.826 0-1.498.672-1.498 1.498 0 .553-.447 1-1 1s-1-.447-1-1c0-1.929 1.569-3.498 3.498-3.498 1.93 0 3.5 1.569 3.5 3.498 0 .553-.447 1-1 1z"/></g><g><path d="m47 35.998c-.553 0-1-.447-1-1v-14.5c0-.553.447-1 1-1s1 .447 1 1v14.5c0 .553-.447 1-1 1z"/></g><g><path d="m42 41.998c-.553 0-1-.447-1-1v-20.5c0-.553.447-1 1-1s1 .447 1 1v20.5c0 .553-.447 1-1 1z"/></g><g><path d="m52 35.998c-.553 0-1-.447-1-1v-2.5c0-.553.447-1 1-1s1 .447 1 1v2.5c0 .553-.447 1-1 1z"/></g><g><path d="m57 35.998c-.553 0-1-.447-1-1v-1.502c0-.553.447-1 1-1s1 .447 1 1v1.502c0 .553-.447 1-1 1z"/></g><g><path d="m62 51.998c-.553 0-1-.447-1-1v-16.502c0-.553.447-1 1-1s1 .447 1 1v16.502c0 .553-.447 1-1 1z"/></g><g><path d="m42 38.998c-.553 0-1-.447-1-1 0-1.654-1.346-3-3-3-.553 0-1-.447-1-1s.447-1 1-1c2.757 0 5 2.243 5 5 0 .553-.447 1-1 1z"/></g><g><path d="m38 49.998c-.553 0-1-.447-1-1v-15c0-.553.447-1 1-1s1 .447 1 1v15c0 .553-.447 1-1 1z"/></g><g><path d="m42.001 57.998c-.367 0-.72-.202-.896-.553l-4-8c-.247-.494-.047-1.095.447-1.342.494-.245 1.095-.047 1.342.447l4 8c.247.494.047 1.095-.447 1.342-.143.072-.296.106-.446.106z"/></g><g><path d="m60 57.998c-.104 0-.211-.017-.316-.052-.523-.174-.807-.74-.632-1.265l2-6c.175-.523.736-.807 1.265-.632.523.174.807.74.632 1.265l-2 6c-.14.419-.53.684-.949.684z"/></g><g><path d="m60.998 64c-.553 0-1-.447-1-1v-5.002h-17.998v5.002c0 .553-.447 1-1 1s-1-.447-1-1v-6.002c0-.553.447-1 1-1h19.998c.553 0 1 .447 1 1v6.002c0 .553-.447 1-1 1z"/></g><g><g><path d="m7 17.006c-.553 0-1-.447-1-1v-10c0-.553.447-1 1-1s1 .447 1 1v10c0 .553-.447 1-1 1z"/></g><g><path d="m10.002 17.006c-.553 0-1-.447-1-1s.447-1 1-1c.552 0 1-.448 1-1 0-.553.447-1 1-1s1 .447 1 1c0 1.654-1.346 3-3 3z"/></g><g><path d="m12.002 9.006c-.553 0-1-.447-1-1 0-.552-.448-1-1-1-.553 0-1-.447-1-1s.447-1 1-1c1.654 0 3 1.346 3 3 0 .553-.447 1-1 1z"/></g><g><path d="m10.002 7.006h-3.002c-.553 0-1-.447-1-1s.447-1 1-1h3.002c.553 0 1 .447 1 1s-.447 1-1 1z"/></g><g><path d="m12.002 15.006c-.553 0-1-.447-1-1v-6c0-.553.447-1 1-1s1 .447 1 1v6c0 .553-.447 1-1 1z"/></g><g><path d="m10.002 17.006h-3.002c-.553 0-1-.447-1-1s.447-1 1-1h3.002c.553 0 1 .447 1 1s-.447 1-1 1z"/></g><g><path d="m20 9.506c-.553 0-1-.447-1-1 0-.827-.673-1.5-1.5-1.5s-1.5.673-1.5 1.5c0 .553-.447 1-1 1s-1-.447-1-1c0-1.93 1.57-3.5 3.5-3.5s3.5 1.57 3.5 3.5c0 .553-.447 1-1 1z"/></g><g><path d="m17.5 17.006c-1.93 0-3.5-1.57-3.5-3.5 0-.553.447-1 1-1s1 .447 1 1c0 .827.673 1.5 1.5 1.5s1.5-.673 1.5-1.5c0-.553.447-1 1-1s1 .447 1 1c0 1.93-1.57 3.5-3.5 3.5z"/></g><g><path d="m15 14.506c-.553 0-1-.447-1-1v-5c0-.553.447-1 1-1s1 .447 1 1v5c0 .553-.447 1-1 1z"/></g><g><path d="m20 14.506c-.553 0-1-.447-1-1v-5c0-.553.447-1 1-1s1 .447 1 1v5c0 .553-.447 1-1 1z"/></g><g><path d="m23 17.006c-.553 0-1-.447-1-1v-10c0-.553.447-1 1-1s1 .447 1 1v10c0 .553-.447 1-1 1z"/></g><g><path d="m28.003 17.006c-.367 0-.72-.202-.896-.553l-5.002-10c-.247-.494-.047-1.095.447-1.342.494-.246 1.095-.047 1.342.447l5.002 10c.247.494.047 1.095-.447 1.342-.143.072-.296.106-.446.106z"/></g><g><path d="m28.002 17.006c-.553 0-1-.447-1-1v-10c0-.553.447-1 1-1s1 .447 1 1v10c0 .553-.447 1-1 1z"/></g><g><path d="m31.002 17.006c-.095 0-.191-.014-.287-.042-.529-.159-.829-.717-.671-1.245l3-10c.158-.529.713-.83 1.245-.671.529.159.829.717.671 1.245l-3 10c-.13.434-.527.713-.958.713z"/></g><g><path d="m37.002 17.006c-.431 0-.828-.279-.958-.713l-3-10c-.158-.528.142-1.086.671-1.245s1.087.142 1.245.671l3 10c.158.528-.142 1.086-.671 1.245-.096.028-.192.042-.287.042z"/></g><g><path d="m36.102 14.006h-4.199c-.553 0-1-.447-1-1s.447-1 1-1h4.199c.553 0 1 .447 1 1s-.448 1-1 1z"/></g><g><path d="m41 17.006c-.553 0-1-.447-1-1v-10c0-.553.447-1 1-1s1 .447 1 1v10c0 .553-.447 1-1 1z"/></g><g><path d="m44 7.006h-6c-.553 0-1-.447-1-1s.447-1 1-1h6c.553 0 1 .447 1 1s-.447 1-1 1z"/></g><g><path d="m47 17.006c-.553 0-1-.447-1-1v-10c0-.553.447-1 1-1s1 .447 1 1v10c0 .553-.447 1-1 1z"/></g><g><path d="m51 7.006h-4c-.553 0-1-.447-1-1s.447-1 1-1h4c.553 0 1 .447 1 1s-.447 1-1 1z"/></g><g><path d="m51 17.006h-4c-.553 0-1-.447-1-1s.447-1 1-1h4c.553 0 1 .447 1 1s-.447 1-1 1z"/></g><g><path d="m50 12.006h-3c-.553 0-1-.447-1-1s.447-1 1-1h3c.553 0 1 .447 1 1s-.447 1-1 1z"/></g></g><g><path d="m54 22c-.553 0-1-.447-1-1s.447-1 1-1c.552 0 1-.448 1-1v-16c0-.552-.448-1-1-1h-50c-.552 0-1 .448-1 1v16c0 .552.448 1 1 1 .553 0 1 .447 1 1s-.447 1-1 1c-1.654 0-3-1.346-3-3v-16c0-1.654 1.346-3 3-3h50c1.654 0 3 1.346 3 3v16c0 1.654-1.346 3-3 3z"/></g><g><path d="m54 22h-7c-.553 0-1-.447-1-1s.447-1 1-1h7c.553 0 1 .447 1 1s-.447 1-1 1z"/></g><g><path d="m42 22h-38c-.553 0-1-.447-1-1s.447-1 1-1h38c.553 0 1 .447 1 1s-.447 1-1 1z"/></g></g></svg>