<?xml version="1.0" encoding="iso-8859-1"?>
<!-- Generator: Adobe Illustrator 19.0.0, SVG Export Plug-In . SVG Version: 6.00 Build 0)  -->
<svg version="1.1" id="Capa_1" xmlns="http://www.w3.org/2000/svg" xmlns:xlink="http://www.w3.org/1999/xlink" x="0px" y="0px"
	 viewBox="0 0 512.001 512.001" style="enable-background:new 0 0 512.001 512.001;" xml:space="preserve">
<g>
	<g>
		<path d="M466.985,301.999c-11.355,0-22.333,4.361-30.615,12.042c-20.583-38.813-58.946-66.217-104.381-71.203v-62.835h15
			c74.437,0,134.996-60.559,134.996-134.996V15.008c0-8.284-6.716-15-15-15h-29.999c-52.179,0-97.535,29.76-119.996,73.196
			C294.529,29.768,249.173,0.008,196.994,0.008h-29.999c-8.284,0-15,6.716-15,15v29.999c0,74.437,60.559,134.996,134.996,134.996h15
			v62.829c-42.082,4.681-79.48,28.872-101.06,65.201c-15.069-7.913-32.007-12.148-49.435-12.148
			c-25.371,0-49.706,8.958-68.728,25.22c-8.154-11.546-21.591-19.106-36.769-19.106H15c-8.284,0-15,6.716-15,15v179.994
			c0,8.284,6.716,15,15,15c5.847,0,317.591,0,331.99,0c32.873,0,64.273-15.701,83.997-41.998l72.012-96.014
			C525.039,344.599,504.15,301.999,466.985,301.999z M436.986,30.007h15v15c0,55.741-43.663,101.468-98.582,104.795l64.19-64.19
			c5.858-5.858,5.858-15.354,0-21.212c-5.857-5.858-15.354-5.858-21.212,0l-64.19,64.19
			C335.518,73.671,381.245,30.007,436.986,30.007z M237.599,64.399c-5.857-5.858-15.354-5.858-21.212,0
			c-5.858,5.858-5.858,15.354,0,21.212l64.19,64.19c-54.919-3.326-98.582-49.053-98.582-104.795v-15h15
			c55.741,0,101.468,43.663,104.795,98.582L237.599,64.399z M60.998,481.993H29.999V331.998h15.999c8.271,0,15,6.729,15,15V481.993z
			 M316.99,272c43.279,0,81.387,25.995,97.334,65.512l-24.355,26.145c-5.698-18.319-22.809-31.659-42.98-31.659H238.313
			c-7.546,0-11.116-5.144-12.91-6.38C243.852,292.728,278.711,272,316.99,272z M479,355.98l-72.013,96.014
			c-14.089,18.784-36.518,29.999-59.998,29.999H90.997V352.171c3.698-2.199,7.198-4.727,10.453-7.592
			c28.53-25.107,71.561-25.107,100.091,0.001c3.973,2.68,14.938,17.416,36.772,17.416h108.677c8.271,0,15,6.729,15,15
			s-6.729,15-15,15H226.993c-8.284,0-15,6.716-15,15c0,8.284,6.716,15,15,15h130.05c12.444,0,24.445-5.222,32.927-14.327
			l52.311-56.156l0.001-0.001l13.724-14.733c2.872-3.083,6.771-4.78,10.98-4.78C479.418,331.998,486.302,346.245,479,355.98z"/>
	</g>
</g>
<g>
</g>
<g>
</g>
<g>
</g>
<g>
</g>
<g>
</g>
<g>
</g>
<g>
</g>
<g>
</g>
<g>
</g>
<g>
</g>
<g>
</g>
<g>
</g>
<g>
</g>
<g>
</g>
<g>
</g>
</svg>
