<svg id="Capa_1" enable-background="new 0 0 512 512" height="512" viewBox="0 0 512 512" width="512" xmlns="http://www.w3.org/2000/svg"><g><g><path d="m401.112 434.498-10.142 5.527c-5.085 2.771-10.242 5.63-15.463 8.525-44.188 24.5-94.267 52.278-142.413 47.973l-170.472-15.219c-.222-.02-.445-.03-.668-.03h-46.925v-84.364h46.925c1.777 0 3.496-.63 4.853-1.777.217-.184 22.047-18.49 52.391-30.406 3.863-1.517 5.765-5.878 4.249-9.741-1.518-3.863-5.878-5.765-9.742-4.248-27.292 10.717-47.848 25.961-54.412 31.143h-51.778c-4.151 0-7.515 3.365-7.515 7.515v99.394c0 4.15 3.364 7.515 7.515 7.515h54.105l170.138 15.189c3.842.343 7.677.507 11.513.507 48.792 0 96.803-26.619 139.524-50.306 5.189-2.877 10.314-5.718 15.367-8.472l10.142-5.527c3.644-1.986 4.988-6.55 3.003-10.195-1.987-3.645-6.552-4.989-10.195-3.003z"/><path d="m506.198 356.784c-7.99-10.594-21.909-14.251-33.926-9.219-.307-4.806-1.935-9.488-4.785-13.478-7.513-10.519-21.797-13.909-33.227-7.884l-17.872 9.419c-.229-4.198-1.467-8.327-3.673-11.975-7.132-11.788-22.2-15.88-34.301-9.319l-13.359 7.243c-.241-5.193-1.999-10.256-5.139-14.529-7.833-10.657-22.013-13.938-33.722-7.797l-96.436 50.581c-10.845-4.164-45.42-15.426-85.81-7.904-4.08.76-6.772 4.683-6.012 8.763.759 4.081 4.685 6.77 8.763 6.012 43.119-8.028 80.021 8.101 80.379 8.26.968.435 2.018.66 3.079.66h100.379c7.132 0 12.934 5.819 12.934 12.971 0 6.519-4.863 12.052-11.313 12.868l-127.227 16.114c-3.764.477-6.582 3.684-6.57 7.478s2.849 6.984 6.615 7.439l54.033 6.513c52.338 6.307 104.369-3.9 150.463-29.527l67.524-37.538c5.937-3.09 13.161-1.458 17.204 3.9 2.407 3.191 3.303 7.264 2.458 11.175-.843 3.904-3.335 7.237-6.835 9.145l-62.217 33.906c-3.644 1.986-4.988 6.55-3.003 10.195 1.364 2.503 3.943 3.92 6.606 3.92 1.215 0 2.447-.296 3.589-.918l62.217-33.906c7.341-4.001 12.566-10.987 14.334-19.168 1.768-8.187-.109-16.716-5.15-23.4zm-173.025-44.229c5.079-2.663 11.233-1.238 14.631 3.388 2.013 2.739 2.712 6.076 1.97 9.396-.742 3.314-2.791 6.029-5.77 7.644 0 0-.001 0-.001.001l-32.47 17.604h-50.871zm6.836 39.69 45.567-24.704c5.04-2.731 11.309-1.023 14.28 3.887 1.554 2.569 1.967 5.578 1.162 8.472-.801 2.888-2.701 5.247-5.346 6.641l-39.522 20.831c-3.071-7.002-8.918-12.514-16.141-15.127zm62.158 34.092c-41.333 22.978-87.74 32.763-134.64 28.455l66.517-8.425c12.34-1.562 21.987-11.1 24.042-23.027l83.181-43.841c4.811-2.535 10.824-1.107 13.99 3.324 1.845 2.584 2.478 5.714 1.779 8.814-.697 3.094-2.604 5.645-5.37 7.182z"/></g><path d="m350.957 260.073c-7.433 0-14.906-1.125-22.206-3.393-39.246-12.195-61.253-54.046-49.059-93.293.556-1.787 1.178-3.552 1.865-5.292h-97.124v35.33c0 15.482-12.595 28.077-28.076 28.077-15.48 0-28.075-12.595-28.075-28.077v-35.33h-22.428v35.33c0 15.482-12.595 28.077-28.075 28.077-15.481 0-28.076-12.595-28.076-28.077v-35.33h-21.627c-15.481 0-28.076-12.595-28.076-28.076s12.595-28.076 28.076-28.076h164.953c4.151 0 7.515 3.365 7.515 7.515s-3.364 7.515-7.515 7.515h-164.953c-7.194 0-13.047 5.853-13.047 13.047s5.853 13.047 13.047 13.047h29.14c4.151 0 7.515 3.365 7.515 7.515v42.845c0 7.194 5.853 13.047 13.047 13.047s13.046-5.853 13.046-13.047v-42.847c0-4.15 3.364-7.515 7.515-7.515h37.457c4.151 0 7.515 3.365 7.515 7.515v42.845c0 7.194 5.852 13.047 13.046 13.047s13.047-5.853 13.047-13.047v-42.845c0-4.15 3.364-7.515 7.515-7.515h116.742c2.716 0 5.222 1.466 6.552 3.835 1.331 2.369 1.279 5.271-.135 7.591-2.547 4.18-4.577 8.674-6.032 13.357-9.736 31.332 7.835 64.744 39.166 74.48 15.176 4.716 31.282 3.24 45.35-4.158 14.068-7.397 24.412-19.831 29.128-35.009 1.008-3.242 1.747-6.66 2.197-10.16.284-2.207 1.53-4.173 3.404-5.372s4.183-1.505 6.304-.838c5.768 1.815 11.782 2.735 17.875 2.735 32.809 0 59.502-26.693 59.502-59.503s-26.693-59.503-59.502-59.503c-6.093 0-12.107.92-17.875 2.735-2.121.666-4.431.362-6.304-.838-1.874-1.199-3.12-3.166-3.404-5.372-.45-3.5-1.189-6.919-2.197-10.16-9.736-31.333-43.148-48.903-74.478-39.167-31.332 9.737-48.901 43.148-39.166 74.481 1.455 4.68 3.483 9.171 6.028 13.349 1.413 2.32 1.465 5.222.134 7.591-1.331 2.368-3.836 3.834-6.552 3.834h-70.566c-4.151 0-7.515-3.365-7.515-7.515s3.364-7.515 7.515-7.515h58.466c-.686-1.736-1.307-3.499-1.862-5.283-12.195-39.248 9.813-81.099 49.059-93.294 39.245-12.198 81.096 9.812 93.291 49.059.451 1.45.858 2.926 1.221 4.423 4.664-.902 9.417-1.357 14.206-1.357 41.097 0 74.531 33.435 74.531 74.533s-33.434 74.533-74.531 74.533c-4.79 0-9.542-.455-14.206-1.357-.363 1.497-.771 2.973-1.221 4.423-5.908 19.011-18.865 34.584-36.485 43.851-10.856 5.706-22.679 8.599-34.602 8.599zm-.111-40.929c-3.298 0-6.65-.489-9.961-1.518-8.58-2.666-15.609-8.514-19.79-16.466-4.182-7.953-5.017-17.058-2.35-25.638 5.504-17.711 24.393-27.643 42.103-22.14 8.58 2.666 15.608 8.514 19.79 16.467 4.181 7.952 5.016 17.057 2.349 25.638-4.474 14.399-17.796 23.657-32.141 23.657zm.032-52.25c-7.935 0-15.304 5.121-17.78 13.088-1.475 4.747-1.014 9.783 1.299 14.182 2.314 4.399 6.201 7.634 10.948 9.109 4.743 1.473 9.782 1.013 14.181-1.3s7.634-6.201 9.109-10.947c1.476-4.747 1.014-9.783-1.299-14.182s-6.202-7.634-10.947-9.109c-1.832-.57-3.687-.841-5.511-.841zm86.591-3.234c-18.547 0-33.636-15.089-33.636-33.637s15.089-33.637 33.636-33.637 33.636 15.089 33.636 33.637c0 18.547-15.089 33.637-33.636 33.637zm0-52.245c-10.259 0-18.607 8.347-18.607 18.608s8.347 18.608 18.607 18.608c10.259 0 18.607-8.347 18.607-18.608s-8.348-18.608-18.607-18.608zm-86.643-3.22c-5.381 0-10.716-1.306-15.614-3.882-7.952-4.182-13.799-11.21-16.466-19.79-2.666-8.58-1.832-17.685 2.35-25.638 4.181-7.952 11.209-13.8 19.79-16.466 8.581-2.665 17.685-1.831 25.637 2.35 7.951 4.182 13.798 11.21 16.465 19.79 2.666 8.58 1.832 17.685-2.349 25.637-4.182 7.952-11.21 13.8-19.79 16.466-3.295 1.025-6.668 1.533-10.023 1.533zm.063-52.27c-1.856 0-3.721.281-5.544.847-4.747 1.475-8.634 4.71-10.948 9.109-2.313 4.399-2.775 9.436-1.299 14.182v.001c1.475 4.746 4.709 8.634 9.109 10.947 4.399 2.313 9.436 2.776 14.182 1.3 4.746-1.475 8.634-4.71 10.947-9.109s2.775-9.435 1.299-14.181c-1.475-4.747-4.709-8.635-9.109-10.948-2.709-1.426-5.66-2.148-8.637-2.148z"/></g></svg>