<svg id="Capa_1" enable-background="new 0 0 512 512" height="512" viewBox="0 0 512 512" width="512" xmlns="http://www.w3.org/2000/svg"><g><path d="m471.535 394.208c-2.296-10.304-4.697-19.361-7.34-27.693-1.671-5.264-7.294-8.175-12.557-6.508-5.264 1.671-8.178 7.292-6.508 12.557 2.465 7.767 4.716 16.27 6.881 25.983 3.285 14.824 1.877 20.549.118 22.74-1.657 2.064-6.539 4.525-20.389 4.525h-94.864c4.158-17.658-.402-37.09-13.679-50.853-8.821-9.155-20.907-13.906-34.005-13.367-12.195.497-23.969 5.468-33.193 14.018-9.198-8.544-20.974-13.521-33.183-14.018-13.107-.53-25.195 4.213-34.011 13.362-13.28 13.766-17.841 33.199-13.684 50.857h-94.862c-13.85 0-18.732-2.461-20.389-4.525-1.76-2.191-3.167-7.916.117-22.738 10.436-47.04 29.938-96.231 90.66-119.982l45.926 59.763c1.963 2.554 4.929 3.907 7.936 3.907 1.958 0 3.932-.573 5.66-1.762l45.817-31.508 45.846 31.51c1.727 1.187 3.7 1.76 5.657 1.76 3.007 0 5.974-1.354 7.936-3.908l45.948-59.793c15.148 5.915 28.323 13.648 39.721 23.336 1.881 1.6 4.183 2.381 6.472 2.381 2.832 0 5.646-1.196 7.624-3.523 3.577-4.208 3.065-10.52-1.143-14.096-22.25-18.912-51.164-31.653-86.04-37.931v-35.082c22.75-22.984 35.729-48.671 35.729-70.961v-34.781c.001-59.484-48.374-107.878-107.835-107.878s-107.837 48.394-107.837 107.878v34.781c0 23.983 15.373 50.306 35.956 71.151v34.887c-102.471 18.334-130.596 87.101-143.558 145.523-2.817 12.711-4.929 28.698 3.812 39.587 8.542 10.642 23.718 12.006 35.986 12.006h104.16c1.342 1.801 2.794 3.541 4.386 5.191.083.085.166.169.251.251l60.011 57.939c1.938 1.87 4.441 2.806 6.946 2.806s5.01-.936 6.948-2.808l59.982-57.939c.085-.081.168-.165.249-.249 1.593-1.651 3.045-3.391 4.387-5.191h104.161c12.268 0 27.444-1.364 35.985-12.006 8.742-10.89 6.629-26.876 3.809-39.599zm-215.549-109.244-51.966-33.217v-20.615c17.589 12.931 36.433 21.192 51.881 21.192 15.008 0 33.88-7.897 52.108-21.347v20.735zm85.174-12.945-35.814 46.605-31.265-21.49 46.09-29.461c7.327 1.177 14.329 2.615 20.989 4.346zm-85.259-252.019c42.015 0 77.228 29.668 85.825 69.162-20.141-8.784-38.387-.281-53.758 6.885-10.871 5.066-21.139 9.853-32.067 9.853s-21.191-4.785-32.058-9.853c-15.371-7.166-33.617-15.672-53.768-6.881 8.595-39.496 43.809-69.166 85.826-69.166zm-87.837 122.659v-28.548c16.365-14.36 28.893-8.532 47.327.063 11.788 5.496 25.149 11.726 40.51 11.726s28.725-6.229 40.516-11.726c18.439-8.594 30.97-14.421 47.32-.065v28.55c0 20.087-14.574 42.393-32.793 59.733-.003.003-.006.006-.009.009-18.376 17.488-40.458 29.922-55.034 29.922-29.032 0-87.837-49.314-87.837-89.664zm23.73 125.01 46.101 29.468-31.242 21.485-35.795-46.58c6.572-1.718 13.542-3.183 20.936-4.373zm117.121 169.329-52.902 51.101-52.928-51.102c-12.726-13.318-12.687-34.886.12-48.16 11.034-11.452 28.984-8.126 39.295 1.529l.557.521c4.012 3.756 7.477 6.999 12.955 6.999 5.49 0 8.947-3.25 12.95-7.014l.541-.507c10.315-9.643 28.272-12.968 39.298-1.524 12.802 13.27 12.84 34.839.114 48.157z"/><path d="m436.501 338.523c5.522 0 10-4.478 10-10v-.028c0-5.522-4.478-9.986-10-9.986s-10 4.492-10 10.015 4.478 9.999 10 9.999z"/></g></svg>